 <svg  version="1.0" xmlns="http://www.w3.org/2000/svg"  width="300.000000pt" height="300.000000pt" viewBox="0 0 300.000000 300.000000"  preserveAspectRatio="xMidYMid meet">  <g transform="translate(0.000000,300.000000) scale(0.100000,-0.100000)" fill="#ff13f5" stroke="none"> <path d="M1455 2800 c-83 -18 -148 -78 -201 -186 -36 -72 -39 -85 -47 -208 -5 -72 -11 -178 -12 -236 -2 -58 -10 -134 -19 -170 -11 -44 -16 -114 -16 -217 0 -215 7 -231 167 -389 118 -116 123 -123 123 -163 0 -23 -5 -41 -11 -41 -38 0 -181 173 -200 242 -12 46 -41 65 -63 42 -20 -20 -20 -57 0 -110 15 -39 15 -44 0 -65 -18 -27 -21 -75 -6 -114 8 -21 6 -31 -11 -55 -19 -25 -20 -33 -10 -62 13 -36 47 -90 99 -156 30 -38 32 -43 15 -49 -57 -20 -67 -61 -28 -114 55 -77 59 -88 44 -147 -12 -50 -11 -56 6 -68 11 -9 27 -11 39 -7 12 4 37 7 56 8 l35 0 -4 -162 -3 -161 25 -17 c31 -20 61 -13 83 20 17 27 44 176 44 248 0 34 6 53 20 67 23 23 25 24 104 24 58 1 60 2 66 31 10 47 39 97 80 137 41 40 57 82 39 104 -17 21 -34 17 -71 -16 -31 -29 -73 -48 -83 -38 -13 13 22 89 60 128 64 67 79 103 95 225 5 39 14 90 19 115 17 78 14 155 -8 174 -12 11 -27 15 -39 12 -19 -6 -19 -4 5 54 24 59 24 67 21 284 -3 233 -7 256 -48 256 -31 0 -54 166 -40 280 5 32 3 36 -27 45 -32 9 -33 10 -33 67 0 62 -11 131 -37 221 -16 56 -65 127 -103 147 -31 16 -94 27 -125 20z m103 -44 c34 -18 75 -62 94 -101 20 -41 52 -237 45 -274 -6 -30 -161 -241 -178 -241 -11 0 -12 27 -1 32 7 2 55 65 140 179 17 23 17 74 -2 188 -19 116 -47 164 -112 193 -95 41 -180 -4 -240 -129 -34 -70 -38 -87 -45 -197 -5 -67 -11 -140 -15 -163 -14 -93 -1 -126 97 -231 80 -87 104 -122 82 -122 -18 0 -185 192 -194 223 -12 38 -3 305 13 387 12 65 59 163 96 203 58 62 157 86 220 53z m-75 -103 c-16 -141 -3 -482 23 -616 l6 -28 28 38 c15 21 40 49 55 63 33 31 57 74 64 119 3 19 12 36 19 39 18 6 15 -46 -7 -93 -20 -44 -138 -181 -152 -177 -11 3 -11 -19 1 -93 5 -33 19 -199 31 -370 29 -430 21 -795 -26 -1169 -16 -123 -25 -146 -55 -146 -41 0 -43 19 -21 227 36 349 44 499 37 693 -6 171 -12 288 -50 870 -8 118 -12 217 -10 219 16 17 25 -73 54 -539 37 -599 37 -798 -3 -1203 -21 -216 -21 -265 2 -242 16 17 50 347 62 605 15 332 -4 705 -61 1200 -32 278 -39 493 -20 605 5 33 10 61 10 63 0 1 5 2 10 2 7 0 8 -23 3 -67z m-47 25 c-4 -18 -10 -111 -13 -205 -4 -140 -8 -173 -19 -173 -21 0 -72 85 -79 133 -3 23 -11 54 -17 69 -21 56 62 208 114 208 18 0 19 -4 14 -32z m139 8 c28 -28 49 -98 66 -213 10 -73 9 -86 -5 -105 -81 -113 -114 -153 -122 -151 -11 3 -18 363 -9 441 5 43 10 52 26 52 11 0 31 -11 44 -24z m-275 -238 c1 -70 80 -178 130 -178 24 0 27 -15 5 -24 -25 -9 -60 10 -99 55 -38 45 -71 134 -60 162 10 28 24 19 24 -15z m448 -195 c-9 -51 -8 -69 5 -111 21 -64 21 -104 1 -145 -18 -33 -184 -217 -196 -217 -21 0 -1 29 71 104 101 105 116 133 106 200 -11 69 -12 207 -2 230 5 12 11 16 17 10 6 -6 5 -32 -2 -71z m-408 6 l57 -62 7 -105 c4 -57 4 -107 1 -111 -13 -12 -125 123 -136 163 -10 37 -4 176 8 176 3 0 31 -28 63 -61z m253 -117 c-34 -42 -53 -51 -53 -26 0 10 17 35 38 57 29 30 38 34 40 22 2 -10 -9 -33 -25 -53z m111 -18 c16 -41 6 -101 -23 -140 -39 -53 -118 -128 -124 -117 -2 4 -7 25 -11 46 -6 30 -2 44 15 70 39 56 122 157 130 157 4 0 10 -7 13 -16z m-455 -119 c15 -36 51 -86 107 -147 77 -85 95 -112 69 -108 -18 3 -157 164 -186 215 -28 48 -38 95 -21 95 5 0 19 -25 31 -55z m552 -97 c-26 -60 -52 -93 -136 -181 -58 -60 -106 -103 -110 -97 -3 5 41 59 98 118 71 74 108 121 117 148 27 82 41 107 52 96 8 -8 2 -32 -21 -84z m-587 66 c8 -20 8 -78 0 -98 -13 -35 -24 -13 -24 49 0 62 11 84 24 49z m123 -50 c-10 -10 -37 16 -37 34 0 13 4 12 22 -5 12 -13 19 -25 15 -29z m506 -13 c9 -44 -8 -133 -37 -187 -29 -57 -232 -259 -242 -242 -4 6 38 54 98 112 123 120 149 165 156 272 5 77 15 95 25 45z m-93 2 c0 -33 -171 -220 -190 -208 -18 11 -11 31 23 62 17 17 56 58 85 92 47 53 82 77 82 54z m-357 -177 c27 -36 37 -59 37 -85 0 -20 3 -46 6 -58 11 -40 -18 -26 -77 35 -77 79 -116 140 -124 195 -13 85 -1 89 63 21 31 -33 74 -82 95 -108z m-183 73 c0 -40 59 -124 155 -219 95 -94 106 -110 82 -110 -19 0 -181 168 -221 230 -35 53 -49 120 -26 120 6 0 10 -10 10 -21z m563 -36 c-15 -44 -134 -182 -175 -204 -15 -8 -18 -6 -18 14 0 15 29 54 86 115 81 87 121 115 107 75z m72 -140 c-1 -94 -4 -114 -25 -158 -28 -56 -219 -260 -232 -247 -4 4 34 51 84 103 51 52 106 119 122 148 26 49 28 60 23 122 -5 65 6 139 21 139 4 0 7 -48 7 -107z m-632 47 c11 -88 40 -135 147 -239 90 -88 115 -121 92 -121 -4 0 -55 48 -114 108 -119 119 -147 167 -148 250 0 66 15 68 23 2z m578 -72 c4 -73 -31 -142 -121 -238 -57 -61 -71 -72 -80 -60 -12 19 -13 91 -1 123 10 24 179 197 194 197 4 0 8 -10 8 -22z m-434 -84 c80 -82 110 -124 87 -124 -15 0 -89 68 -139 127 -49 57 -68 93 -48 93 4 0 49 -43 100 -96z m-147 -86 c0 -55 101 -185 201 -258 64 -46 84 -70 59 -70 -15 0 -131 89 -168 129 -60 64 -112 152 -112 188 0 18 5 33 10 33 6 0 10 -10 10 -22z m575 -94 c-20 -53 -159 -204 -188 -204 -40 0 -14 44 90 150 59 60 109 108 111 105 3 -2 -3 -25 -13 -51z m85 -16 c-1 -105 -27 -173 -85 -223 -26 -22 -81 -71 -121 -109 -41 -38 -77 -66 -81 -63 -11 11 29 58 98 115 152 127 156 135 166 275 3 42 9 77 14 77 5 0 9 -33 9 -72z m-30 37 c0 -34 -43 -97 -107 -157 -36 -35 -82 -78 -101 -95 -32 -31 -52 -41 -52 -26 0 3 45 48 100 100 70 66 107 109 122 144 23 49 38 63 38 34z m-628 -111 c-5 -49 98 -184 197 -257 62 -47 75 -60 60 -65 -16 -6 -59 26 -142 107 -84 81 -134 151 -137 191 -4 45 0 62 13 57 7 -2 11 -16 9 -33z m79 -43 c19 -21 59 -56 89 -77 30 -20 61 -44 68 -53 18 -22 16 -81 -3 -81 -30 0 -222 221 -209 241 9 16 21 10 55 -30z m516 -13 c-9 -20 -36 -50 -66 -72 -28 -21 -54 -43 -58 -49 -12 -18 -73 -67 -84 -67 -28 0 -1 45 57 96 37 33 85 78 107 101 46 48 66 43 44 -9z m-582 -153 c42 -84 65 -106 165 -165 38 -22 72 -45 76 -51 10 -17 -5 -24 -24 -12 -9 7 -51 32 -93 57 -76 45 -114 87 -163 184 -15 29 -16 62 -3 62 2 0 21 -34 42 -75z m611 24 c-14 -86 -56 -138 -178 -223 -73 -50 -78 -52 -78 -33 0 8 36 37 80 66 93 60 122 95 145 174 19 67 41 78 31 16z m-409 -143 c44 -20 58 -39 45 -62 -13 -23 -137 60 -189 126 -71 90 -55 104 30 24 39 -38 91 -77 114 -88z m343 108 c0 -25 -37 -70 -97 -119 -56 -46 -83 -56 -83 -31 0 14 158 166 172 166 5 0 8 -7 8 -16z m-361 -255 c40 -12 61 -32 47 -46 -3 -3 -11 -1 -18 4 -7 5 -31 15 -53 21 -45 13 -111 74 -100 92 5 8 19 1 44 -23 20 -19 56 -41 80 -48z m301 53 c0 -13 -51 -56 -93 -80 -45 -26 -47 -26 -47 -9 0 8 23 26 51 41 28 16 53 34 56 42 5 15 33 20 33 6z m-450 -18 c0 -31 54 -71 114 -85 53 -12 75 -24 63 -35 -9 -9 -141 27 -160 44 -25 23 -49 70 -42 82 10 15 25 12 25 -6z m590 -12 c0 -4 -13 -23 -29 -42 -28 -34 -32 -35 -112 -41 -46 -4 -94 -10 -106 -14 -15 -5 -23 -3 -23 4 0 22 67 41 131 39 57 -3 62 -1 87 29 25 30 52 43 52 25z m-392 -140 c3 -11 -6 -12 -42 -7 -34 6 -52 3 -70 -9 -25 -16 -44 -7 -31 14 17 28 134 29 143 2z m299 5 c-3 -8 -24 -11 -59 -9 -37 2 -66 -2 -87 -12 -37 -20 -41 -20 -41 -2 0 13 36 32 74 38 40 6 117 -4 113 -15z m-323 -33 c9 -3 16 -12 16 -20 0 -17 -2 -17 -32 -3 -16 7 -31 7 -48 0 l-25 -10 27 0 c40 -1 78 -19 78 -36 0 -18 0 -18 -38 0 -27 14 -34 14 -72 -1 -22 -9 -44 -14 -47 -10 -8 8 17 36 33 36 8 0 14 8 14 18 0 10 3 22 7 25 8 9 66 9 87 1z m268 -30 c44 -23 22 -39 -26 -19 -33 14 -40 14 -72 -1 -42 -20 -58 -10 -25 17 28 23 81 25 123 3z"/> </g> </svg> 